<svg xmlns="http://www.w3.org/2000/svg" xmlns:xlink="http://www.w3.org/1999/xlink" width="1568.728" height="1200.328" viewBox="0 0 1568.728 1200.328">
  <defs>
    <linearGradient id="linear-gradient" x1="-8.242" y1="5.295" x2="-8.242" y2="3.55" gradientUnits="objectBoundingBox">
      <stop offset="0" stop-color="#a5bfcf"/>
      <stop offset="0.27" stop-color="#b4ccd9"/>
      <stop offset="0.79" stop-color="#dbeff3"/>
      <stop offset="1" stop-color="#edffff"/>
    </linearGradient>
    <linearGradient id="linear-gradient-2" x1="3.984" y1="4.375" x2="5.241" y2="4.375" gradientUnits="objectBoundingBox">
      <stop offset="0" stop-color="#322f40"/>
      <stop offset="0.35" stop-color="#353444"/>
      <stop offset="0.73" stop-color="#3f4151"/>
      <stop offset="1" stop-color="#494f5f"/>
    </linearGradient>
    <linearGradient id="linear-gradient-3" x1="-93.446" y1="0.937" x2="-93.552" y2="1.83" gradientUnits="objectBoundingBox">
      <stop offset="0" stop-color="#fdca99"/>
      <stop offset="0.46" stop-color="#fdc898"/>
      <stop offset="0.72" stop-color="#fcbf94"/>
      <stop offset="0.93" stop-color="#fbb28c"/>
      <stop offset="1" stop-color="#faab89"/>
    </linearGradient>
    <linearGradient id="linear-gradient-4" x1="-458.333" y1="60.147" x2="-457.6" y2="59.261" gradientUnits="objectBoundingBox">
      <stop offset="0" stop-color="#ffb596"/>
      <stop offset="0.42" stop-color="#fdc197"/>
      <stop offset="0.85" stop-color="#fcc898"/>
    </linearGradient>
  </defs>
  <g id="Group_886" data-name="Group 886" transform="translate(-135.024 -98)">
    <g id="illustration-1" transform="translate(354.569 794.66)">
      <g id="Layer_2" data-name="Layer 2" transform="translate(0 0.004)">
        <g id="Layer_1" data-name="Layer 1">
          <path id="Path_15852" data-name="Path 15852" d="M62.144,171.125c-29.836-26.309-37.934-68.65-37.934-68.65L121.758,74.4s.31,33.654,8.554,47.235c3.685,6.066,7.383,11.309,10.353,15.279l1.114,11.79-46.45,35.838S76.2,183.523,62.144,171.125Z" transform="translate(-8.881 -27.293)" fill="#5e1727"/>
          <path id="Path_15853" data-name="Path 15853" d="M160.306,278.864c2.989,22.795,8.231,53.991-7.731,54.086-28.493.177-38.8-81.617-34.92-95.611C117.654,237.315,156.842,252.321,160.306,278.864Z" transform="translate(-42.869 -87.063)" fill="#312f40"/>
          <path id="Path_15854" data-name="Path 15854" d="M127.15,196.958c8.079-24.194,39.947-48.248,39.947-48.248s4.635,6.237,11.163,14.962v83.415a476.8,476.8,0,0,1-51.11-50.129Z" transform="translate(-46.641 -54.552)" fill="url(#linear-gradient)"/>
          <path id="Path_15855" data-name="Path 15855" d="M152.075,155l5.661,6.629-27.088,29.126-5.528-5.1A95.948,95.948,0,0,1,152.075,155Z" transform="translate(-45.896 -56.859)" fill="#dff8ef"/>
          <path id="Path_15856" data-name="Path 15856" d="M157.226,162.63a31.9,31.9,0,0,0-4.432,13.094c-.766,5.344,2.887,10.359-1,14.8-.7.8-7.472-.905-9.441-.266-4.743,1.551-8.5,5.9-12.106,9.5-.234-.139-.469-.26-.7-.405C135.236,185.444,147.836,171.1,157.226,162.63Z" transform="translate(-47.521 -59.658)" fill="#fbb690"/>
          <path id="Path_15857" data-name="Path 15857" d="M165.867,155.034c1.146-1,7.446-.291,9.833,3.66,2.064,3.413,2.482,14.854,1.1,19.629-2.444-4.356-4.945-5.027-7.756-2.792-1.7,1.349-1.963,3.907-1.9,8.136-1.526.443-3.362-4.173-3.077-6.231C165.146,169.838,170.053,161.031,165.867,155.034Z" transform="translate(-60.17 -56.722)" fill="#fff"/>
          <path id="Path_15858" data-name="Path 15858" d="M141.457,202.154c3.28-1.083,5.908.924,7.44,2.963-8.7-1.754-9.428,5.407-5.357,8.795-3.862,1.38-12.341-.684-13.873-1.513-5.578-3.008-5.35-8.63-4.831-9.935C128.844,205.206,135.119,205.225,141.457,202.154Z" transform="translate(-45.701 -74.045)" fill="#fff"/>
          <path id="Path_15859" data-name="Path 15859" d="M140.925,267.485c-7.434-13.93-18.267-29.76-23.535-38.143.26-.393,4.337-11.7,6.743-14.842,10.207,11.3,28.81,29.05,50.547,42.081v45.906C159.357,294.629,148.922,282.516,140.925,267.485Z" transform="translate(-43.061 -78.685)" fill="url(#linear-gradient-2)"/>
          <path id="Path_15860" data-name="Path 15860" d="M160.27,265.882s-29.221-23.618-40.79-44.209c.241-3.717,4.692-8,4.692-8,13.6,13.753,32.875,26.473,51.288,36.87v17.729l-6.794-9.884Z" transform="translate(-43.827 -78.38)" fill="#575d6c"/>
          <path id="Path_15861" data-name="Path 15861" d="M198.161,134.11c.076,0,.076,45.235.076,45.235-10.827-20.066-16.615-34-16.627-34.464C183.212,142.854,198.161,134.11,198.161,134.11Z" transform="translate(-66.618 -49.196)" fill="#312f40"/>
          <path id="Path_15862" data-name="Path 15862" d="M195.23,136.85c1.007,1.1,2.007,2.222,3.008,3.337V180.35c-10.815-20.047-16.615-34-16.627-34.464C182.762,144.429,190.8,139.509,195.23,136.85Z" transform="translate(-66.618 -50.201)" fill="#333041" opacity="0.3"/>
          <path id="Path_15863" data-name="Path 15863" d="M187.914,141.5c3.388,3.343,6.667,6.838,9.821,10.34v37.94c-8.231-14.323-14.728-28.753-17.495-41.79Z" transform="translate(-66.115 -51.907)" fill="#575d6c"/>
          <path id="Path_15864" data-name="Path 15864" d="M151.039,163.159c-4.806,3.964-8.643,9.593-12.474,14.114-1.779,2.1-3.869,4.274-5.889,6.566l-11.277-13.1,15.925-20.958Z" transform="translate(-44.532 -54.944)" fill="#fbb690"/>
          <path id="Path_15865" data-name="Path 15865" d="M144.56,156.884c-.494,1.615-6.091,9.612-10.1,13.683-3.331,3.394-8.124,5.065-9.143,4.787l-3.957-4.616,15.925-20.958Z" transform="translate(-44.517 -54.944)" fill="#f69271"/>
          <path id="Path_15866" data-name="Path 15866" d="M88.6,42.2c19.882,34.28,26.283,50.959,19.1,68.327-5.813,14.063-17.552,28.012-38.776,26.226-16.944-1.437-30.342-18.141-35.135-30.937C27.545,89.1,21.333,69.542,20.39,64.951,20.39,64.951,85.62,41.169,88.6,42.2Z" transform="translate(-7.479 -15.47)" fill="url(#linear-gradient-3)"/>
          <path id="Path_15867" data-name="Path 15867" d="M85.728,153.833a16.1,16.1,0,0,1,3.894-1.6c1.057-.342,2.26-.728,3.476-1.228s2.368-1.076,3.489-1.64c3.166-1.577,6.136-3.065,8.231-1.14.905.817,1.4,2.64,1.266,4.629a10.321,10.321,0,0,1-4.679,7.9,14.563,14.563,0,0,1-3.046,1.583,11.758,11.758,0,0,1-9.808-.6,7.8,7.8,0,0,1-4.141-4.768A2.837,2.837,0,0,1,85.728,153.833Z" transform="translate(-30.932 -54.039)" fill="#f7a672"/>
          <path id="Path_15868" data-name="Path 15868" d="M93.457,150.126c2.634-1.1,5.281-1.982,7.415-1.9,3.761.152,4.274,1.7,4.274,1.7s-18.02,8.972-18.78,7.934-.139-2.533.412-3.394C87.746,152.931,90.386,151.4,93.457,150.126Z" transform="translate(-31.551 -54.373)" fill="#fd8b79"/>
          <path id="Path_15869" data-name="Path 15869" d="M94.1,152.583c4.61-1.9,8.472-4.951,10.631-2.982,1.539,1.406,2.191,9.156-6.129,12.353-5.819,2.241-11.771-1.14-12.55-4.61C85.468,154.717,89.5,154.464,94.1,152.583Z" transform="translate(-31.546 -54.645)" fill="#921f33"/>
          <path id="Path_15870" data-name="Path 15870" d="M108.236,153.151c.462,2.913-.7,7.908-6.965,10.327a10.764,10.764,0,0,1-8.041-.12A14.741,14.741,0,0,1,108.236,153.151Z" transform="translate(-34.198 -56.169)" fill="#cd3735"/>
          <path id="Path_15871" data-name="Path 15871" d="M108.992,153.152a3.247,3.247,0,0,1,.057.424A18.362,18.362,0,0,1,95.29,160.4,14.816,14.816,0,0,1,108.992,153.152Z" transform="translate(-34.954 -56.17)" fill="#c1272d"/>
          <path id="Path_15872" data-name="Path 15872" d="M105.4,149.626a2.108,2.108,0,0,1,.405.6c-4.882,6.718-14,9.555-18,4.97,1.437-.874,4.09-1.412,6.965-2.59C99.378,150.709,103.241,147.638,105.4,149.626Z" transform="translate(-32.21 -54.651)" fill="#fff"/>
          <path id="Path_15873" data-name="Path 15873" d="M105.4,149.626a2.108,2.108,0,0,1,.405.6,17.724,17.724,0,0,1-1.361,1.634c-5.452-1.1-14.164,3.223-13.74,5.2A6.212,6.212,0,0,1,87.81,155.2c1.437-.874,4.09-1.412,6.965-2.59C99.378,150.709,103.241,147.638,105.4,149.626Z" transform="translate(-32.21 -54.651)" fill="#dbede8"/>
          <path id="Path_15874" data-name="Path 15874" d="M88.614,42.2c15.051,25.96,22.364,41.79,21.927,55.517-3.457-4.432-6.332-9.3-9.428-13.993-.323-.494-1.64-2.786-2.406-3.008-5.2-1.52-10.321-2.254-14.816-5.7a52.219,52.219,0,0,1-12.366-12.86.443.443,0,0,0-.678-.07.3.3,0,0,0-.209.228,21.4,21.4,0,0,0-.424,6.534c.2,1.659.437,3.843,1.456,5.319a17.375,17.375,0,0,1-6.034-2.311c-1.57-.893-3.02-2.1-4.648-2.875a.291.291,0,0,0-.469-.228c-.405-.158-.557.234-.4.456.051.063.114.114.165.184-.57,2.533,1.045,5.065,2.457,7.073a52.139,52.139,0,0,0,3.337,4.47,13.094,13.094,0,0,1-6.851,0c-1.836-.443-3.7-1.843-5.54-1.811-.323.2-.393.342-.317.507a1.785,1.785,0,0,0,.152.228A8.466,8.466,0,0,0,54.979,83.1a5.7,5.7,0,0,0,.443.589c-2.647-.266-5.528.557-8.149.412a20.686,20.686,0,0,1-5.591-.994c-1.615-.545-2.951-1.634-4.572-2.077a.519.519,0,0,0-.279,0,.481.481,0,0,0-.741.469c.7,5.008-1.988,10.929-3.552,15.633-.279.861-.633,1.7-.969,2.533C26.15,84.593,21.249,68.985,20.42,64.945,20.4,64.951,85.631,41.169,88.614,42.2Z" transform="translate(-7.49 -15.47)" fill="#fca87a" opacity="0.3"/>
          <path id="Path_15875" data-name="Path 15875" d="M134.082,111.87c5.7-24.757-4.337-48.609-19.141-67.9,4.185-1.266,7-1.963,7.6-1.767,19.882,34.28,26.283,50.958,19.1,68.327-4.825,11.682-13.772,23.25-28.822,25.821C122.508,130.853,130.935,123.267,134.082,111.87Z" transform="translate(-41.384 -15.47)" fill="#fca87a" opacity="0.3"/>
          <path id="Path_15876" data-name="Path 15876" d="M84.91,113.136c2.33.785,9.5,14.038,6.25,19-3.115,4.85-10.22,2.469-10.549-.557-.209-1.976,1.779-3.47,2.374-6.275C83.733,121.741,82.7,112.4,84.91,113.136Z" transform="translate(-29.564 -41.488)" fill="url(#linear-gradient-4)"/>
          <path id="Path_15877" data-name="Path 15877" d="M81.341,109.24s3.97,10.473,2.716,13.449c-3.343,4.47-4.527,11.644,6.68,8.934-4.28,3.248-8.865,2.64-9.979-1.064-1.209-4.084,1.64-6,2.362-8.985S81.341,109.24,81.341,109.24Z" transform="translate(-29.515 -40.073)" fill="#ea755b"/>
          <path id="Path_15878" data-name="Path 15878" d="M56.064,122.326c1.811-.753,4.065.551,5.021,2.9s-.228,3.514-2.033,4.249-3.59.779-4.553-1.564S54.241,123.061,56.064,122.326Z" transform="translate(-19.833 -44.795)" fill="#872a35"/>
          <path id="Path_15879" data-name="Path 15879" d="M114.063,100.967c1.9-.633,4,.9,4.749,3.318s-.519,3.47-2.387,4.071-3.641.45-4.388-1.963S112.183,101.569,114.063,100.967Z" transform="translate(-41.001 -36.986)" fill="#872a35"/>
          <path id="Path_15880" data-name="Path 15880" d="M115.645,97.609c.361.12.165.734-.2.633-1.336-.361-3.35,0-4.166,1.222-.291.45-.943-.063-.633-.526C111.675,97.476,114.049,97.153,115.645,97.609Z" transform="translate(-40.556 -35.737)" fill="#eb7b62"/>
          <path id="Path_15881" data-name="Path 15881" d="M57.83,118.75c.374.082.215.7-.139.633-1.38-.247-3.343.26-4.046,1.57-.266.469-.943,0-.671-.462C53.853,118.953,56.2,118.4,57.83,118.75Z" transform="translate(-19.408 -43.524)" fill="#eb7b62"/>
          <path id="Path_15882" data-name="Path 15882" d="M164.615,82.552c6.908,2.235,7.554,11.34,4.584,17.235-1.817,3.571-6.155,8.136-10.422,8.668-3.59-3.615-5.629-11.8-3.653-19.933C156.162,84.249,160.062,81.052,164.615,82.552Z" transform="translate(-56.619 -30.146)" fill="#fab483"/>
          <path id="Path_15883" data-name="Path 15883" d="M164.15,93.922c0-1.653,1.412-4.154,3.065-4.572.462.924-.209,1.678-.633,2.438-1.127,1.963-.633,3.166.576,4.85a4.348,4.348,0,0,1-.633,6.231.943.943,0,0,1-1.159.044c-.07-.082-.152-.152-.228-.234a.418.418,0,0,1-.184-.443,1.355,1.355,0,0,1,.405-.855c1.6-1.266.772-2.786-.057-4.071a6.092,6.092,0,0,1-1.152-3.388Z" transform="translate(-60.213 -32.777)" fill="#f17963"/>
          <path id="Path_15884" data-name="Path 15884" d="M106.369,81.184c4.781-1.589,8.383,2.653,8.383,2.653a13.681,13.681,0,0,0-7.079-.45c-3.28.9-5.534,4.951-5.534,4.951S101.291,82.887,106.369,81.184Z" transform="translate(-37.447 -29.651)" fill="#872a35"/>
          <path id="Path_15885" data-name="Path 15885" d="M48.015,101.107c4.432-1.551,7.282,2.8,7.282,2.8a9.754,9.754,0,0,0-6.155-.671c-3.039.855-4.7,4.5-4.7,4.5S43.336,102.753,48.015,101.107Z" transform="translate(-16.261 -36.967)" fill="#872a35"/>
          <path id="Path_15886" data-name="Path 15886" d="M110.759,173.046c.633,1.507-6.332,4.863-6.813,3.166S110.348,172.1,110.759,173.046Z" transform="translate(-38.12 -63.4)" fill="#fca87a" opacity="0.3"/>
          <path id="Path_15887" data-name="Path 15887" d="M21.966,12.336c8.865-5.863,17.583-6.072,22.909-5.92a25.779,25.779,0,0,1,10.593.975s5.762-8.618,20-7.237S115.05,19.522,118.438,46.73c2.628,21.072-12.315,35.053-13.3,34.407-6.332-10.131-10.093-22.1-17.97-33.28,4.128,8.687,2.533,6.965,3.2,12.461-9.941-4.363-21.034-8.282-27.151-24.9,0,0-3,9.909-1.659,16.627-7.6-1.634-11.359-8.624-12.03-12.429-1.032,1.944-.741,10.41,5.711,22.016-5.54,1.9-16.032-5.065-18.362-10.068,1.767,4.584,4.7,8.288,6.965,11.5-5.7,1.488-15.925-1.165-19.7-9.5,1.982,7.6,1.361,19.85-.342,24.9.171,6.136.715,11.4-3.571,14.012C5.731,77.041-11.27,34.256,21.966,12.336Z" transform="translate(-1.014 -0.004)" fill="#932934"/>
          <path id="Path_15888" data-name="Path 15888" d="M112.643,59.958a49.28,49.28,0,0,1,.981,5.369c2.628,21.072-12.315,35.053-13.3,34.407C94,89.6,90.235,77.637,82.358,66.455c4.128,8.687,2.533,6.965,3.2,12.461-9.941-4.363-21.034-8.282-27.151-24.9,0,0-3,9.909-1.659,16.627-7.6-1.634-11.359-8.624-12.03-12.429-1.032,1.944-.741,10.41,5.711,22.016-5.54,1.9-16.032-5.065-18.362-10.068,1.767,4.584,4.7,8.288,6.965,11.5-5.7,1.488-15.925-1.165-19.7-9.5,1.982,7.6,1.361,19.85-.342,24.9.171,6.136.715,11.4-3.571,14.012C9.5,104.769,3.166,93.947,0,81.784A97.219,97.219,0,0,1,112.643,59.958Z" transform="translate(0 -18.601)" fill="#932934"/>
          <path id="Path_15889" data-name="Path 15889" d="M23.832,12.336C32.7,6.472,41.415,6.263,46.74,6.415a25.779,25.779,0,0,1,10.593.975s5.762-8.618,20-7.237a34.865,34.865,0,0,1,12.151,4C63.576,17.73,36.312,30.28,7.85,31.167A41.269,41.269,0,0,1,23.832,12.336Z" transform="translate(-2.88 -0.004)" fill="#932934"/>
          <path id="Path_15890" data-name="Path 15890" d="M127.946,28.534c13.93,14.772,23.757,35.11,18.59,55.315-.747-1.488-1.475-3-2.21-4.521a66.574,66.574,0,0,0,0-16.836c-1.9-12.809-8.694-23.751-16.925-33.464C127.117,28.68,127.623,28.2,127.946,28.534Z" transform="translate(-46.702 -10.427)" fill="#6b1723"/>
          <path id="Path_15891" data-name="Path 15891" d="M39.8,49.426c.437,14.234,6.275,23.029,16.121,31.963a14.486,14.486,0,0,1-2.26.127c-10.694-7.37-14.646-18.647-14.171-32.1a.155.155,0,0,1,.31.013Z" transform="translate(-14.471 -18.073)" fill="#6b1723"/>
          <path id="Path_15892" data-name="Path 15892" d="M64.741,68.242A43.113,43.113,0,0,0,71.756,80.52,58.252,58.252,0,0,0,77.7,86.44l.082.165a7.383,7.383,0,0,1-3.451.215c-5.065-4.876-8.32-11.689-10.131-18.362C64.127,68.135,64.627,67.938,64.741,68.242Z" transform="translate(-23.546 -24.979)" fill="#6b1723"/>
          <path id="Path_15893" data-name="Path 15893" d="M101.1,32.96c5.7,15.2,13.6,27.062,24.017,38.9-1.9-.829-3.85-1.672-5.781-2.6-9.732-9.662-14.892-22.795-18.654-36.212C100.609,32.783,101.014,32.707,101.1,32.96Z" transform="translate(-36.929 -12.036)" fill="#6b1723"/>
          <path id="Path_15894" data-name="Path 15894" d="M78.754,31.035A80.978,80.978,0,0,0,83.6,52.963a49.077,49.077,0,0,0,5.6,10,2.032,2.032,0,0,0,.057.386A14.563,14.563,0,0,1,84.516,61.4c-4.711-9.194-6.18-20.211-6.186-30.393C78.324,30.738,78.754,30.769,78.754,31.035Z" transform="translate(-28.733 -11.308)" fill="#6b1723"/>
          <path id="Path_15895" data-name="Path 15895" d="M119.57,38.525c5.927,7.206,13.36,9.46,19.287,16.665,6.528-21.528-5.331-41.056-22.883-54.01,14.563,3.546,36.459,20.806,39.6,45.982,2.628,21.072-12.315,35.053-13.3,34.407-6.332-10.131-10.093-22.1-17.97-33.28,4.128,8.687,2.533,6.965,3.2,12.461-8.212-3.584-17.178-6.9-23.51-17.2,5.806,2.634,10.429,6.965,16.748,8.865C118.183,47.567,120.545,44.23,119.57,38.525Z" transform="translate(-38.149 -0.435)" fill="#5e1727" opacity="0.3"/>
          <path id="Path_15896" data-name="Path 15896" d="M21.038,71.236a67.735,67.735,0,0,0,10.08,38.827,31.027,31.027,0,0,1-.918,3.888c-8.415-12.03-11.195-27.714-9.567-42.733A.2.2,0,1,1,21.038,71.236Z" transform="translate(-7.406 -26.054)" fill="#6b1723"/>
          <path id="Path_15897" data-name="Path 15897" d="M6,33.572c28.462-.886,55.726-13.436,81.63-27.012,12.119,6.275,25.6,19.47,29.842,37.206A97.219,97.219,0,0,0,4.825,65.592C2.109,55.163,1.767,43.8,6,33.572Z" transform="translate(-1.026 -2.409)" fill="#c72934" opacity="0.3"/>
          <path id="Path_15898" data-name="Path 15898" d="M220.985,29.958c2.14-1.406,0-6.1-5.065-7.693s-11.4-.7-13.689,1.19c-2.533,2.064-2.469,5.065.095,6.661C204.345,31.357,219.49,30.939,220.985,29.958Z" transform="translate(-73.498 -7.868)" fill="#fdca99"/>
          <path id="Path_15899" data-name="Path 15899" d="M222.123,30.824a1.9,1.9,0,0,1-.81,1.722c-1.494.981-16.64,1.4-18.647.158a4.192,4.192,0,0,1-1.406-1.355C208.333,27.829,215.583,27.474,222.123,30.824Z" transform="translate(-73.826 -10.456)" fill="#fbaf7c"/>
          <path id="Path_15900" data-name="Path 15900" d="M221.966,38.1c2.913-.095,4.8-3.558,1.551-5.7-1.083-.715-9.434-2.26-14.563-1.659s-10.131,2.7-10.549,8.149,2.324,4.793,2.324,4.793A47.413,47.413,0,0,1,221.966,38.1Z" transform="translate(-72.763 -11.229)" fill="#fdca99"/>
          <path id="Path_15901" data-name="Path 15901" d="M223.586,40.574a3.521,3.521,0,0,1-1.6.431,47.368,47.368,0,0,0-21.218,5.572s-2.146.513-2.343-3.2C205.237,37.5,215.2,37.484,223.586,40.574Z" transform="translate(-72.788 -14.135)" fill="#fbaf7c"/>
          <path id="Path_15902" data-name="Path 15902" d="M222.163,46.989c1.368-.393,3.166-1.007,2.26-3.8s-8.06-2.919-13.1-1.773-13.069,3.388-13.81,7.845.526,5.458,1.938,5.756c.576.12,4.85-3.331,10.929-5.49C215.173,47.824,219.675,47.7,222.163,46.989Z" transform="translate(-72.371 -14.946)" fill="#fdca99"/>
          <path id="Path_15903" data-name="Path 15903" d="M221.252,50.668c-2.6.538-6.61.81-10.859,2.317-6.079,2.159-10.353,5.61-10.929,5.49-1.032-.215-1.982-.823-2.134-2.881C203.668,51.56,213.584,48.857,221.252,50.668Z" transform="translate(-72.384 -18.378)" fill="#fbaf7c"/>
          <path id="Path_15904" data-name="Path 15904" d="M222.774,63.572c1.862-1.526-2.184-5.5-8.269-7.313A19.287,19.287,0,0,0,204.374,56c-2.59.576-5.167,2.349-5.515,4.021-.81,3.9,2.533,10.555,6.015,11.657A13.31,13.31,0,0,0,206.2,64.99l7.073-.962S218.994,66.668,222.774,63.572Z" transform="translate(-72.9 -20.341)" fill="#fdca99"/>
          <path id="Path_15905" data-name="Path 15905" d="M208.51,64.765c5.547-1.475,10.182,1.5,16.3,2.229-3.8,2.78-9.244.247-9.244.247l-7.1.994a13.31,13.31,0,0,1-1.323,6.686,5.18,5.18,0,0,1-1.368-.741C204.774,70.071,203.938,66.38,208.51,64.765Z" transform="translate(-75.193 -23.611)" fill="#fbaf7c"/>
          <path id="Path_15906" data-name="Path 15906" d="M245.4,226.934s.583-17.792,1.469-19.673,6.769-8.231,6.769-8.231l6.889,1.418Z" transform="translate(-90.017 -73.01)" fill="#fbaf7c"/>
          <path id="Path_15907" data-name="Path 15907" d="M256.464,225.931c-.855.076-12.664-3.97-12.664-3.97.3-8.573,2.824-23.029,11.638-28.9,0,0,8.744-9.846,15.519-16.171.76-.716,4.261-.146,3.2,2.406-4.274,7.858-7.807,12.4-11.055,19.04,3.09-2.368,5.819,1.9,4.559,4.337,1.374-.488,4.755,3.261,3.217,5.547,2.045-.424,4.939,2.856,2.21,5.3C271.787,214.7,256.464,225.931,256.464,225.931Z" transform="translate(-89.43 -64.782)" fill="#fdca99"/>
          <path id="Path_15908" data-name="Path 15908" d="M275.718,211.1c1.469,1.019.728,4.135.709,4.1,1.368-.519,4.831,3.166,3.343,5.477,10.675,2.792-6.914,11.543-12.03,16.5C271,228.766,271.6,219.148,275.718,211.1Z" transform="translate(-98.212 -77.438)" fill="#fbaf7c"/>
          <path id="Path_15909" data-name="Path 15909" d="M284.092,176.68c3.672,2.121-5.274,11.841-4.6,11.847l-4.679,8.979C275.443,193.694,281.845,183.322,284.092,176.68Z" transform="translate(-100.805 -64.812)" fill="#fbaf7c"/>
          <path id="Path_15910" data-name="Path 15910" d="M256.373,248.352l-4.268,8.865s-17.862-4.375-19.255-11.4c.633-1.317,5.623-7.7,5.623-7.7Z" transform="translate(-85.414 -87.349)" fill="#d3dddb"/>
          <path id="Path_15911" data-name="Path 15911" d="M149.254,319.25c5.065-25.327,41.5-58.962,52.744-72.93,3.343,2.628,15,7.858,21.528,12.942-5.591,11.841-17.444,37.472-33.926,62.444-6.68,10.131-17.7,15.684-27.379,15.3S147.76,326.664,149.254,319.25Z" transform="translate(-54.65 -90.357)" fill="#3d3f50"/>
          <path id="Path_15912" data-name="Path 15912" d="M218.063,258.37a73.385,73.385,0,0,1,8.231,5.312c-5.591,11.841-17.444,37.472-33.926,62.444-6.68,10.131-17.7,15.684-27.379,15.3a12.784,12.784,0,0,1-8.459-3.565C185.853,324.62,205.361,288.085,218.063,258.37Z" transform="translate(-57.418 -94.777)" fill="#333041" opacity="0.3"/>
          <circle id="Ellipse_1705" data-name="Ellipse 1705" cx="2.159" cy="2.159" r="2.159" transform="translate(108.8 135.093)" fill="#939393"/>
          <circle id="Ellipse_1706" data-name="Ellipse 1706" cx="2.159" cy="2.159" r="2.159" transform="translate(116.816 143.369)" fill="#939393"/>
          <circle id="Ellipse_1707" data-name="Ellipse 1707" cx="2.159" cy="2.159" r="2.159" transform="translate(125.376 151.468)" fill="#939393"/>
        </g>
      </g>
    </g>
    <path id="Icon_awesome-layer-group" data-name="Icon awesome-layer-group" d="M1.81,21.592,35.789,37.006a3.735,3.735,0,0,0,3.106,0L72.873,21.592a3.259,3.259,0,0,0,0-5.839L38.9.338a3.735,3.735,0,0,0-3.106,0L1.81,15.751a3.26,3.26,0,0,0,0,5.841ZM72.875,34.469,64.4,30.629,40.823,41.316a8.408,8.408,0,0,1-6.961,0L10.285,30.629,1.81,34.469a3.256,3.256,0,0,0,0,5.835l33.979,15.4a3.746,3.746,0,0,0,3.106,0l33.98-15.4a3.256,3.256,0,0,0,0-5.835Zm0,18.642-8.441-3.826-23.61,10.7a8.408,8.408,0,0,1-6.961,0l-23.609-10.7L1.81,53.111a3.256,3.256,0,0,0,0,5.835l33.979,15.4a3.746,3.746,0,0,0,3.106,0l33.98-15.4a3.256,3.256,0,0,0,0-5.835Z" transform="translate(1511.243 218.611) rotate(-9)" fill="#4285f2" opacity="0.07"/>
    <path id="Icon_awesome-database" data-name="Icon awesome-database" d="M70,11.429v7.143C70,24.866,54.323,30,35,30S0,24.866,0,18.571V11.429C0,5.134,15.677,0,35,0S70,5.134,70,11.429ZM70,27.5V43.571C70,49.866,54.323,55,35,55S0,49.866,0,43.571V27.5c7.52,5.179,21.282,7.589,35,7.589S62.48,32.679,70,27.5Zm0,25V68.571C70,74.866,54.323,80,35,80S0,74.866,0,68.571V52.5c7.52,5.179,21.282,7.589,35,7.589S62.48,57.679,70,52.5Z" transform="translate(135.024 488.898) rotate(-13)" fill="#4285f2" opacity="0.07"/>
    <path id="Icon_awesome-comment" data-name="Icon awesome-comment" d="M42.467,2.25C19.01,2.25,0,17.694,0,36.754c0,8.228,3.55,15.759,9.455,21.681C7.382,66.8.448,74.244.365,74.327A1.319,1.319,0,0,0,.116,75.77a1.3,1.3,0,0,0,1.211.8c11,0,19.243-5.275,23.323-8.526a50.591,50.591,0,0,0,17.816,3.218c23.456,0,42.467-15.444,42.467-34.5S65.923,2.25,42.467,2.25Z" transform="translate(1618.819 728.75)" fill="#4285f2" opacity="0.07"/>
    <path id="Icon_awesome-code" data-name="Icon awesome-code" d="M34.092,62.521l-7.456-2.164a1.469,1.469,0,0,1-1-1.821L42.319,1.062a1.469,1.469,0,0,1,1.821-1L51.6,2.223a1.469,1.469,0,0,1,1,1.821L35.914,61.518a1.465,1.465,0,0,1-1.821,1ZM20.158,48.806l5.317-5.672a1.467,1.467,0,0,0-.1-2.1L14.3,31.29l11.074-9.742a1.456,1.456,0,0,0,.1-2.1l-5.317-5.672a1.468,1.468,0,0,0-2.078-.061L.466,30.214a1.457,1.457,0,0,0,0,2.139L18.08,48.867a1.457,1.457,0,0,0,2.078-.061Zm39.995.073L77.766,32.366a1.457,1.457,0,0,0,0-2.139L60.152,13.7a1.48,1.48,0,0,0-2.078.061l-5.317,5.672a1.467,1.467,0,0,0,.1,2.1L63.93,31.29,52.855,41.032a1.456,1.456,0,0,0-.1,2.1l5.317,5.672a1.469,1.469,0,0,0,2.078.073Z" transform="translate(371.106 115.597) rotate(-13)" fill="#4285f2" opacity="0.07"/>
    <path id="Icon_simple-visualstudiocode" data-name="Icon simple-visualstudiocode" d="M85.419,9.41,67.192.639A5.513,5.513,0,0,0,60.9,1.709L26,33.552,10.793,22.01a3.686,3.686,0,0,0-4.708.21L1.207,26.656a3.69,3.69,0,0,0,0,5.457L14.387,44.142,1.2,56.17a3.69,3.69,0,0,0,0,5.457l4.882,4.431a3.686,3.686,0,0,0,4.708.21L26,54.728,60.9,86.571a5.505,5.505,0,0,0,6.287,1.07L85.427,78.87a5.535,5.535,0,0,0,3.129-4.989V14.4a5.535,5.535,0,0,0-3.137-4.989ZM66.432,64.244l-26.485-20.1,26.485-20.1Z" transform="translate(266.013 1113.619)" fill="#4285f2" opacity="0.07"/>
    <path id="Icon_metro-cog" data-name="Icon metro-cog" d="M67.075,44.552a13.644,13.644,0,0,1,5.04-18.613L65.086,13.765a13.469,13.469,0,0,1-6.834,1.852,13.644,13.644,0,0,1-13.6-13.689H30.6a13.466,13.466,0,0,1-1.813,6.863,13.644,13.644,0,0,1-18.639,4.942L3.115,25.906A13.471,13.471,0,0,1,8.136,30.9,13.644,13.644,0,0,1,3.127,49.494l7.028,12.174a13.467,13.467,0,0,1,6.8-1.834,13.644,13.644,0,0,1,13.6,13.617H44.615a13.471,13.471,0,0,1,1.814-6.79A13.644,13.644,0,0,1,65.036,61.7l7.028-12.174a13.471,13.471,0,0,1-4.989-4.975Zm-29.46,7.619A14.482,14.482,0,1,1,52.1,37.689,14.482,14.482,0,0,1,37.615,52.171Z" transform="translate(1255.885 1224.878)" fill="#4285f2" opacity="0.07"/>
  </g>
</svg>
