<svg xmlns="http://www.w3.org/2000/svg" xmlns:xlink="http://www.w3.org/1999/xlink" width="349.722" height="410.32" viewBox="0 0 349.722 410.32">
  <defs>
    <linearGradient id="linear-gradient" x1="-0.519" y1="-0.775" x2="2.483" y2="2.907" gradientUnits="objectBoundingBox">
      <stop offset="0" stop-color="#2b3582"/>
      <stop offset="1" stop-color="#150e42"/>
    </linearGradient>
    <linearGradient id="linear-gradient-2" x1="-0.004" y1="-2.464" x2="1.074" y2="4.125" xlink:href="#linear-gradient"/>
    <linearGradient id="linear-gradient-3" x1="62.838" y1="0.5" x2="61.82" y2="0.5" gradientUnits="objectBoundingBox">
      <stop offset="0" stop-color="#090056"/>
      <stop offset="1" stop-color="#020039"/>
    </linearGradient>
    <linearGradient id="linear-gradient-4" x1="1.757" y1="-8.61" x2="-0.326" y2="6.388" xlink:href="#linear-gradient-3"/>
    <linearGradient id="linear-gradient-5" x1="139.219" y1="0.5" x2="138.219" y2="0.5" xlink:href="#linear-gradient-3"/>
    <linearGradient id="linear-gradient-6" x1="5.222" y1="-41.431" x2="0.636" y2="-1.051" xlink:href="#linear-gradient-3"/>
    <linearGradient id="linear-gradient-7" x1="213.317" y1="0.5" x2="212.317" y2="0.5" gradientUnits="objectBoundingBox">
      <stop offset="0" stop-color="#febbba"/>
      <stop offset="1" stop-color="#ff928e"/>
    </linearGradient>
    <linearGradient id="linear-gradient-8" x1="243.247" y1="0.5" x2="242.247" y2="0.5" xlink:href="#linear-gradient-7"/>
    <linearGradient id="linear-gradient-9" x1="-2.087" y1="1.345" x2="0.384" y2="0.582" xlink:href="#linear-gradient-3"/>
    <linearGradient id="linear-gradient-10" x1="337.521" y1="-3.524" x2="343.256" y2="3.755" gradientUnits="objectBoundingBox">
      <stop offset="0" stop-color="#cb236d"/>
      <stop offset="1" stop-color="#4c246d"/>
    </linearGradient>
    <linearGradient id="linear-gradient-11" x1="77.842" y1="-3.09" x2="78.895" y2="-2.339" xlink:href="#linear-gradient-7"/>
    <linearGradient id="linear-gradient-12" x1="1.098" y1="0.38" x2="-1.001" y2="0.905" xlink:href="#linear-gradient-3"/>
    <linearGradient id="linear-gradient-13" x1="319.916" y1="-12.736" x2="324.237" y2="-10.156" xlink:href="#linear-gradient-7"/>
    <linearGradient id="linear-gradient-14" x1="0.969" y1="0.767" x2="-0.654" y2="-0.248" xlink:href="#linear-gradient-7"/>
  </defs>
  <g id="Layer_2" data-name="Layer 2" transform="translate(0 0)">
    <g id="Layer_1" data-name="Layer 1" transform="translate(0 0)">
      <path id="Path_15983" data-name="Path 15983" d="M267.1,306.934a24.254,24.254,0,0,0-24.254-24.254H36.583a21.368,21.368,0,0,0-21.342,20.283L.02,602.006a15.759,15.759,0,0,0,15.447,16.551l236.4,4.3A14.958,14.958,0,0,0,267.093,607.9Z" transform="translate(82.622 -237.389)" fill="#4285f2"/>
      <path id="Path_15984" data-name="Path 15984" d="M341.56,274.245a7.05,7.05,0,0,0-7.99-7.026c-28.167,3.82-125.028,15.633-205.11,9.485a6.513,6.513,0,0,0-7.014,6.145L105.48,583.225a7.5,7.5,0,0,0,7.05,7.885c33.674,1.993,172.386,9.7,221.86,4.517a5.94,5.94,0,0,0,5.315-5.879Z" transform="translate(-8.736 -224.352)" fill="#91b3fa"/>
      <path id="Path_15985" data-name="Path 15985" d="M353.381,322.617a6.777,6.777,0,0,0-7.691-6.761c-27.106,3.676-120.327,15.045-197.386,9.133a6.271,6.271,0,0,0-6.752,5.914L126.19,619.968a7.21,7.21,0,0,0,6.779,7.586c32.413,1.923,165.9,9.333,213.512,4.347a5.718,5.718,0,0,0,5.114-5.658Z" transform="translate(-23.876 -265.197)" fill="#fff" opacity="0.6"/>
      <path id="Path_15986" data-name="Path 15986" d="M361.508,474.507l-2.884,61.974a3.938,3.938,0,0,1-3.823,3.757c-11.478.32-47.241,1.2-67.436.144a4.4,4.4,0,0,1-4.166-4.254c-.385-11.622-1.227-45.449,1.421-59.59a4.967,4.967,0,0,1,4.717-4.031l67.84-2.381a4.188,4.188,0,0,1,4.331,4.38Z" transform="translate(-57.095 -394.8)" fill="#fff" opacity="0.78"/>
      <ellipse id="Ellipse_1721" data-name="Ellipse 1721" cx="13.322" cy="13.322" rx="13.322" ry="13.322" transform="matrix(-0.23, -0.973, 0.973, -0.23, 255.473, 117.884)" fill="#e6bf02"/>
      <path id="Path_15987" data-name="Path 15987" d="M424.393,782.235H381.955a3.286,3.286,0,0,1-2.761-5.066c3.6-5.64,11.148-13.928,24.211-13.553,12.59.359,20.053,7.851,23.8,13.213a3.435,3.435,0,0,1-2.817,5.406Z" transform="translate(-138.781 -641.258)" fill="#e6bf02"/>
      <g id="Group_872" data-name="Group 872" transform="translate(132.332 79.575)" opacity="0.6">
        <path id="Path_15988" data-name="Path 15988" d="M868.478,502.184a2.2,2.2,0,0,1-2.355-2.083,2.4,2.4,0,0,1,2.477-2.123l74.4-1.32a1.574,1.574,0,0,1,1.613,2.243l-.356,1.009a3.665,3.665,0,0,1-3.221,2.28Z" transform="translate(-866.122 -496.657)" fill="#fff"/>
      </g>
      <g id="Group_873" data-name="Group 873" transform="translate(132.332 91.127)" opacity="0.6">
        <path id="Path_15989" data-name="Path 15989" d="M943,568.758A1.574,1.574,0,0,1,944.61,571l-.356,1.011a3.665,3.665,0,0,1-3.221,2.28H868.478a2.2,2.2,0,0,1-2.355-2.083,2.4,2.4,0,0,1,2.477-2.121Z" transform="translate(-866.122 -568.758)" fill="#fff"/>
      </g>
      <g id="Group_874" data-name="Group 874" transform="translate(132.332 102.849)" opacity="0.6">
        <path id="Path_15990" data-name="Path 15990" d="M943,641.918a1.573,1.573,0,0,1,1.613,2.243l-.356,1.011a3.666,3.666,0,0,1-3.221,2.278H868.478a2.195,2.195,0,0,1-2.355-2.083,2.4,2.4,0,0,1,2.477-2.123Z" transform="translate(-866.122 -641.917)" fill="#fff"/>
      </g>
      <g id="Group_875" data-name="Group 875" transform="translate(125.18 159.35)" opacity="0.6">
        <path id="Path_15991" data-name="Path 15991" d="M291.671,1000.111a2.1,2.1,0,0,1-2.28-2.083,2.486,2.486,0,0,1,2.554-2.1l174.278-1.371c1.33-.01,1.74.833.912,1.873l-1.424,1.788a5.69,5.69,0,0,1-3.922,1.891Z" transform="translate(-289.387 -994.56)" fill="#fff"/>
      </g>
      <g id="Group_876" data-name="Group 876" transform="translate(125.18 170.904)" opacity="0.6">
        <path id="Path_15992" data-name="Path 15992" d="M466.223,1066.67c1.33-.01,1.74.831.912,1.871l-1.424,1.79a5.691,5.691,0,0,1-3.922,1.891H291.671a2.1,2.1,0,0,1-2.28-2.083,2.486,2.486,0,0,1,2.554-2.1Z" transform="translate(-289.387 -1066.669)" fill="#fff"/>
      </g>
      <path id="Path_15993" data-name="Path 15993" d="M298.865,1184.288c-4.19-.32-12.037-.471-16.357-.53a3.914,3.914,0,0,0-3.865,2.993,63.826,63.826,0,0,0-1.839,15.815,3.477,3.477,0,0,0,3.509,3.4l15.939-.172a3.827,3.827,0,0,0,3.772-3.47l1.4-15a2.786,2.786,0,0,0-2.559-3.043Z" transform="translate(3.938 -994.094)" fill="#4285f2"/>
      <g id="Group_877" data-name="Group 877" transform="translate(231.119 196.349)" opacity="0.6">
        <path id="Path_15994" data-name="Path 15994" d="M506.031,1225.489a1.923,1.923,0,0,1,2.056,2.288l-.386,2.563a2.9,2.9,0,0,1-2.775,2.389H466.212a2.387,2.387,0,0,1-2.387-2.416v-.654a2.586,2.586,0,0,1,2.445-2.517Z" transform="translate(-463.825 -1225.486)" fill="#fff"/>
      </g>
      <path id="Path_15995" data-name="Path 15995" d="M840.863,1184.288c-4.19-.32-12.036-.471-16.355-.53a3.914,3.914,0,0,0-3.866,2.993,63.758,63.758,0,0,0-1.838,15.816,3.475,3.475,0,0,0,3.507,3.4l15.941-.171a3.828,3.828,0,0,0,3.77-3.47l1.4-15a2.786,2.786,0,0,0-2.559-3.043Z" transform="translate(-624.901 -994.094)" fill="#4285f2"/>
      <g id="Group_878" data-name="Group 878" transform="translate(144.279 196.349)" opacity="0.6">
        <path id="Path_15996" data-name="Path 15996" d="M1048.028,1225.489a1.922,1.922,0,0,1,2.056,2.288l-.385,2.563a2.905,2.905,0,0,1-2.776,2.389H1008.21a2.387,2.387,0,0,1-2.388-2.416v-.654a2.588,2.588,0,0,1,2.445-2.517Z" transform="translate(-1005.822 -1225.486)" fill="#fff"/>
      </g>
      <path id="Path_15997" data-name="Path 15997" d="M311.726,1452.848h.034l14.708-.141a3.948,3.948,0,0,0,4.036-3.365l1.293-12.337a2.682,2.682,0,0,0-.641-2.016,3.229,3.229,0,0,0-2.243-1.112h0c-1.24-.083-2.985-.232-4.832-.389-3.89-.332-8.732-.744-11.456-.778a4.111,4.111,0,0,0-4.119,2.884c-.766,2.834-.7,8.2-.553,13.909A3.645,3.645,0,0,0,311.726,1452.848ZM328.842,1435a2.093,2.093,0,0,1,1.463.71,1.565,1.565,0,0,1,.375,1.173l-1.293,12.337a2.83,2.83,0,0,1-2.924,2.352l-14.708.141h-.029a2.505,2.505,0,0,1-2.637-2.243c-.144-5.626-.213-10.9.514-13.585a3.031,3.031,0,0,1,3.014-2.046c2.684.034,7.5.444,11.376.774,1.852.16,3.6.306,4.852.393Z" transform="translate(-31.413 -1203.159)" fill="#fff"/>
      <path id="Path_15998" data-name="Path 15998" d="M340.766,1450.111c-3.089-.212-9.806-.894-12.991-.933a2.851,2.851,0,0,0-2.85,1.969c-.615,2.272-.534,6.8-.426,10.985a2.461,2.461,0,0,0,2.586,2.243l11.756-.112a2.718,2.718,0,0,0,2.78-2.283l1.033-9.863A1.906,1.906,0,0,0,340.766,1450.111Z" transform="translate(-44.92 -1216.988)" fill="#fff" opacity="0.6"/>
      <g id="Group_879" data-name="Group 879" transform="translate(125.047 236.912)" opacity="0.6">
        <path id="Path_15999" data-name="Path 15999" d="M655.434,1483.232a3.653,3.653,0,0,1-3.563,2.724l-136.092-1.16a2.762,2.762,0,0,1,.01-5.523l136.1-.623a3.651,3.651,0,0,1,3.551,4.582Z" transform="translate(-513.087 -1478.65)" fill="#fff"/>
      </g>
      <path id="Path_16000" data-name="Path 16000" d="M348.946,1411.931h0a2.256,2.256,0,0,0-3.113.848l-2.9,5.2a.724.724,0,0,1-1.295-.056l-7.2-16.022a.8.8,0,0,0-1.537.346,31.632,31.632,0,0,0,9.2,22.011s4.315-1.676,7.79-9.307A2.368,2.368,0,0,0,348.946,1411.931Z" transform="translate(-53.726 -1176.877)" fill="#4285f2"/>
      <path id="Path_16001" data-name="Path 16001" d="M311.726,1649.608h.034l14.708-.141a3.949,3.949,0,0,0,4.036-3.365l1.293-12.337a2.688,2.688,0,0,0-.641-2.017,3.237,3.237,0,0,0-2.243-1.11h0c-1.24-.085-2.985-.234-4.832-.391-3.89-.33-8.732-.744-11.456-.777h-.059a4.1,4.1,0,0,0-4.06,2.884c-.766,2.833-.7,8.2-.553,13.909A3.645,3.645,0,0,0,311.726,1649.608Zm17.117-17.845a2.082,2.082,0,0,1,1.463.71,1.563,1.563,0,0,1,.375,1.171l-1.293,12.337a2.832,2.832,0,0,1-2.924,2.352l-14.708.141h-.029a2.505,2.505,0,0,1-2.637-2.243c-.144-5.625-.213-10.895.514-13.585a3.02,3.02,0,0,1,3.014-2.046c2.684.034,7.5.444,11.376.774,1.852.16,3.6.306,4.852.392Z" transform="translate(-31.413 -1368.393)" fill="#fff"/>
      <path id="Path_16002" data-name="Path 16002" d="M340.766,1646.833c-3.089-.211-9.806-.894-12.991-.934a2.853,2.853,0,0,0-2.85,1.969c-.615,2.274-.534,6.8-.426,10.986a2.461,2.461,0,0,0,2.586,2.243l11.756-.114a2.716,2.716,0,0,0,2.78-2.283l1.033-9.862A1.91,1.91,0,0,0,340.766,1646.833Z" transform="translate(-44.92 -1382.189)" fill="#fff" opacity="0.6"/>
      <g id="Group_880" data-name="Group 880" transform="translate(125.047 268.436)" opacity="0.6">
        <path id="Path_16003" data-name="Path 16003" d="M655.437,1679.982a3.654,3.654,0,0,1-3.564,2.724l-136.093-1.16a2.762,2.762,0,0,1,.01-5.523l136.1-.623a3.653,3.653,0,0,1,3.55,4.582Z" transform="translate(-513.09 -1675.4)" fill="#fff"/>
      </g>
      <path id="Path_16004" data-name="Path 16004" d="M348.942,1608.688h0a2.257,2.257,0,0,0-3.113.848l-2.9,5.2a.724.724,0,0,1-1.295-.056l-7.2-16.022a.8.8,0,0,0-1.537.348,31.635,31.635,0,0,0,9.2,22.011s4.315-1.678,7.79-9.307A2.37,2.37,0,0,0,348.942,1608.688Z" transform="translate(-53.722 -1342.111)" fill="#4285f2"/>
      <path id="Path_16005" data-name="Path 16005" d="M311.725,1846.359h.034l14.708-.141a3.945,3.945,0,0,0,4.036-3.365l1.293-12.337a2.682,2.682,0,0,0-.641-2.017,3.227,3.227,0,0,0-2.243-1.11h0c-1.24-.085-2.985-.234-4.832-.391-3.89-.332-8.732-.744-11.456-.777h-.059a4.1,4.1,0,0,0-4.06,2.884c-.766,2.833-.7,8.2-.553,13.909A3.644,3.644,0,0,0,311.725,1846.359Zm17.117-17.846a2.1,2.1,0,0,1,1.463.711,1.561,1.561,0,0,1,.375,1.171l-1.293,12.337a2.828,2.828,0,0,1-2.922,2.351l-14.71.143h-.029a2.505,2.505,0,0,1-2.637-2.243c-.144-5.627-.213-10.895.514-13.585a3.014,3.014,0,0,1,3.014-2.046c2.684.034,7.5.444,11.376.774,1.852.16,3.6.306,4.852.391Z" transform="translate(-31.412 -1533.62)" fill="#fff"/>
      <path id="Path_16006" data-name="Path 16006" d="M340.766,1843.592c-3.089-.21-9.806-.893-12.991-.933a2.853,2.853,0,0,0-2.85,1.969c-.615,2.273-.534,6.8-.426,10.985a2.453,2.453,0,0,0,2.586,2.243l11.756-.114a2.719,2.719,0,0,0,2.78-2.283l1.033-9.862A1.914,1.914,0,0,0,340.766,1843.592Z" transform="translate(-44.92 -1547.424)" fill="#fff" opacity="0.6"/>
      <g id="Group_881" data-name="Group 881" transform="translate(125.047 299.961)" opacity="0.6">
        <path id="Path_16007" data-name="Path 16007" d="M655.434,1876.744a3.653,3.653,0,0,1-3.563,2.724l-136.093-1.16a2.762,2.762,0,0,1,.01-5.523l136.1-.625a3.653,3.653,0,0,1,3.55,4.584Z" transform="translate(-513.087 -1872.16)" fill="#fff"/>
      </g>
      <path id="Path_16008" data-name="Path 16008" d="M348.942,1805.448h0a2.258,2.258,0,0,0-3.113.848l-2.9,5.2a.726.726,0,0,1-1.295-.056l-7.2-16.022a.8.8,0,0,0-1.537.348,31.636,31.636,0,0,0,9.2,22.012s4.315-1.678,7.79-9.308A2.37,2.37,0,0,0,348.942,1805.448Z" transform="translate(-53.722 -1507.346)" fill="#4285f2"/>
      <path id="Path_16009" data-name="Path 16009" d="M311.724,2043.118h.034l14.708-.141a3.945,3.945,0,0,0,4.036-3.365l1.293-12.337a2.683,2.683,0,0,0-.641-2.018,3.223,3.223,0,0,0-2.243-1.11h0c-1.24-.085-2.985-.234-4.832-.391-3.89-.332-8.732-.743-11.456-.777h-.059a4.1,4.1,0,0,0-4.06,2.884c-.766,2.833-.7,8.2-.553,13.907A3.644,3.644,0,0,0,311.724,2043.118Zm17.117-17.845a2.1,2.1,0,0,1,1.463.71,1.564,1.564,0,0,1,.375,1.173l-1.293,12.337a2.829,2.829,0,0,1-2.922,2.351l-14.71.141h-.029a2.5,2.5,0,0,1-2.637-2.243c-.144-5.627-.213-10.9.514-13.587a3,3,0,0,1,3.014-2.046c2.684.033,7.5.445,11.376.773,1.852.16,3.6.308,4.852.393Z" transform="translate(-31.412 -1698.854)" fill="#fff"/>
      <path id="Path_16010" data-name="Path 16010" d="M340.766,2040.351c-3.089-.212-9.806-.893-12.991-.932a2.85,2.85,0,0,0-2.85,1.969c-.615,2.272-.534,6.8-.426,10.985a2.453,2.453,0,0,0,2.586,2.243l11.756-.112a2.719,2.719,0,0,0,2.78-2.283l1.033-9.862A1.912,1.912,0,0,0,340.766,2040.351Z" transform="translate(-44.92 -1712.66)" fill="#fff" opacity="0.6"/>
      <g id="Group_882" data-name="Group 882" transform="translate(124.98 331.486)" opacity="0.6">
        <path id="Path_16011" data-name="Path 16011" d="M655.5,2073.5h0a3.653,3.653,0,0,1-3.563,2.724l-136.093-1.16a2.762,2.762,0,1,1,.009-5.524l136.1-.623a3.652,3.652,0,0,1,3.55,4.584Z" transform="translate(-513.087 -2068.92)" fill="#fff"/>
      </g>
      <path id="Path_16012" data-name="Path 16012" d="M348.942,2002.208h0a2.258,2.258,0,0,0-3.113.848l-2.9,5.2a.726.726,0,0,1-1.295-.056l-7.2-16.022a.8.8,0,0,0-1.537.347,31.636,31.636,0,0,0,9.2,22.012s4.315-1.678,7.79-9.308A2.37,2.37,0,0,0,348.942,2002.208Z" transform="translate(-53.722 -1672.581)" fill="#4285f2"/>
      <path id="Path_16013" data-name="Path 16013" d="M725.537,4.521C732.989-.663,739.462-.56,744.027.786a9.1,9.1,0,0,1,6.462,9.562l-1.967,21.47-23.4,2.083S710.926,14.685,725.537,4.521ZM735.83,21.839A5.837,5.837,0,1,0,729.994,16a5.837,5.837,0,0,0,5.835,5.836Z" transform="translate(-515.995 -0.003)" fill="url(#linear-gradient)"/>
      <path id="Path_16014" data-name="Path 16014" d="M750.743,39.266a.567.567,0,0,0,.562-.514l.312-3.419a.564.564,0,1,0-1.122-.1l-.312,3.419a.564.564,0,0,0,.509.614Zm.614-6.7a.566.566,0,0,0,.562-.513l.237-2.592A8.681,8.681,0,0,0,746,20.35,17.48,17.48,0,0,0,737.452,20a.564.564,0,1,0,.226,1.106,16.4,16.4,0,0,1,8.011.328,7.551,7.551,0,0,1,5.35,7.925l-.237,2.6a.566.566,0,0,0,.511.614Z" transform="translate(-520.554 -16.483)" fill="#fff"/>
      <path id="Path_16015" data-name="Path 16015" d="M620.113,194.054V183.262a6.587,6.587,0,0,0-6.813-6.582l-74.4,2.549a6.409,6.409,0,0,0-6.175,6.018l-.622,10.371Z" transform="translate(-355.645 -148.369)" fill="url(#linear-gradient-2)"/>
      <path id="Path_16016" data-name="Path 16016" d="M682.1,196.155h3.2a.566.566,0,1,0,0-1.13h-3.2a.566.566,0,0,0,0,1.13Z" transform="translate(-445.377 -163.778)" fill="#fff"/>
      <path id="Path_16017" data-name="Path 16017" d="M571.634,206.051a.566.566,0,0,0,.564-.566v-4.368A6.125,6.125,0,0,0,566.081,195H554.316a.566.566,0,1,0,0,1.13h11.765a4.994,4.994,0,0,1,4.988,4.988v4.366a.566.566,0,0,0,.566.572Z" transform="translate(-311.194 -163.753)" fill="#fff"/>
      <path id="Path_16018" data-name="Path 16018" d="M986.622,399.325l17.517-14.284,17.517,14.284a300.065,300.065,0,0,1-1.309-44.692q.353-7.769,1.066-15.043a2.219,2.219,0,0,0-2.209-2.429H988.722a2.214,2.214,0,0,0-2.213,2.1q-.583,11.163-.728,23.088C985.643,375.307,985.967,387.654,986.622,399.325Z" transform="translate(-829.873 -283.14)" fill="#e6bf02"/>
      <path id="Path_16019" data-name="Path 16019" d="M487.876,267.165a7.011,7.011,0,0,0-7-6.675H350.75a9.613,9.613,0,0,0-9.477,7.977l-.111.641a8.261,8.261,0,0,0,8.139,9.669H482.8a5.371,5.371,0,0,0,5.364-5.629Z" transform="translate(-193.089 -218.754)" fill="#4285f2"/>
      <path id="Path_16020" data-name="Path 16020" d="M1660.388,2487.665c6.817.321,13.415.117,17.82-.109-4.006-2.855-13.25-9.067-20.989-11.536l-5.307-.321s-1.8,2.735-2.442,8.995C1650.354,2485.792,1652.926,2487.323,1660.388,2487.665Z" transform="translate(-1592.767 -2079.039)" fill="url(#linear-gradient-3)"/>
      <path id="Path_16021" data-name="Path 16021" d="M1675.553,2534.732a.631.631,0,0,0-.056-.039c-4.4.226-11,.423-17.82.109-7.461-.343-10.033-1.873-10.912-2.972-.029.288-.059.574-.083.88a2.485,2.485,0,0,0,2.283,2.684c5.582.421,19.423,1.378,26.1,1.027a.931.931,0,0,0,.489-1.688Z" transform="translate(-1590.056 -2126.176)" fill="url(#linear-gradient-4)"/>
      <path id="Path_16022" data-name="Path 16022" d="M2078.482,2487.466c-.5-3.2-1.3-7.825-1.922-9.008-.969-1.855-4.291,0-4.291,0a8.807,8.807,0,0,0-3.4,2.9c-.684,1.155-2.576,4.443-3.858,6.675a1.51,1.51,0,0,0-.2.8l13.3.464A2.66,2.66,0,0,0,2078.482,2487.466Z" transform="translate(-2059.618 -2080.663)" fill="url(#linear-gradient-5)"/>
      <path id="Path_16023" data-name="Path 16023" d="M2067.31,2547.48a1.513,1.513,0,0,0,1.474,1.47l9.476.261a2.674,2.674,0,0,0,2.351-1.267Z" transform="translate(-2062.117 -2139.318)" fill="url(#linear-gradient-6)"/>
      <path id="Path_16024" data-name="Path 16024" d="M2067.523,2407.69c-.115.385-1.833,8.717-2.587,12.373a2.082,2.082,0,0,1-2.148,1.667c-.562-.027-1.218-.078-1.905-.16a2.521,2.521,0,0,1-2.191-2.4c-.122-3.2-.183-9.352.993-11.735C2061.308,2404.137,2067.523,2407.69,2067.523,2407.69Z" transform="translate(-2047.639 -2020.533)" fill="url(#linear-gradient-7)"/>
      <path id="Path_16025" data-name="Path 16025" d="M1773.82,2417.4c.737-.024-.295,3.805.821,7.568a1.937,1.937,0,0,0,1.772,1.527c.574.007,1.255,0,1.944-.06a2.137,2.137,0,0,0,1.969-1.923l.907-9.76Z" transform="translate(-1715.714 -2027.855)" fill="url(#linear-gradient-8)"/>
      <path id="Path_16026" data-name="Path 16026" d="M1759.469,1758.769c-.32,1.6-11.941,69.333-12.647,104.382a1.193,1.193,0,0,1-1.025,1.161,23.462,23.462,0,0,1-7.13-.046.84.84,0,0,1-.692-.772c-.405-6.531-3.669-61.753.32-87.749,0,0-33.018,69.49-38.022,88.651a1.008,1.008,0,0,1-1.031.755,24.936,24.936,0,0,1-6.689-1.189,1.748,1.748,0,0,1-1.1-2.054c2.8-11.467,22.393-90.471,35.7-107.878Z" transform="translate(-1680.746 -1472.996)" fill="url(#linear-gradient-9)"/>
      <path id="Path_16027" data-name="Path 16027" d="M1793.641,1864.028a.432.432,0,0,1-.311-.737l4.422-4.521a.433.433,0,0,1,.619.607l-4.421,4.52A.427.427,0,0,1,1793.641,1864.028Z" transform="translate(-1736.084 -1560.845)" fill="url(#linear-gradient-10)"/>
      <path id="Path_16028" data-name="Path 16028" d="M1606.371,1227.76c-9.879-1.485-29.265-3.613-41.911.1l1.371,39.085,45.824-4.938,3.887-5.524S1613.733,1228.869,1606.371,1227.76Z" transform="translate(-1516.481 -1029.393)" fill="#3c7de6"/>
      <path id="Path_16029" data-name="Path 16029" d="M1671.174,1107.49s-.916,15.542-.742,20.38c0,0,12.726,2.083,15.756-.094l-2.394-18.426Z" transform="translate(-1604.102 -930.046)" fill="#febbba"/>
      <path id="Path_16030" data-name="Path 16030" d="M1660.834,1010.31s5.127,8.995,5.928,13.918,2.222,8.024-3.4,9.637-10.751-.719-13.9-5.372c0,0-4.914-7.162-4.326-10.374S1660.834,1010.31,1660.834,1010.31Z" transform="translate(-1581.391 -848.436)" fill="url(#linear-gradient-11)"/>
      <path id="Path_16031" data-name="Path 16031" d="M1669.691,969.834l.724-.079s-3.644-5.8-1.138-7.154,12.658-4.594,14.5-8.519c1.777-3.785-.641-8.171-3.662-9.133a.389.389,0,0,0-.471.234l-.191.481a.389.389,0,0,1-.724,0h0a.391.391,0,0,0-.71-.031c-.567,1.174-2.23,3.166-7.112,4.623-6.927,2.065-11.291,5.428-10.879,10.325a.393.393,0,0,1-.569.383c-.556-.261-1.406-.32-2.421.737-1.763,1.841-.516,5.988,4.113,9.013a.389.389,0,0,1,.05.625c-.718.585-1.739,1.9,1.411,3.176,3.222,1.3,5.007.928,5.669.681a.391.391,0,0,0,.252-.434l-.734-4.3a.391.391,0,0,1,.343-.455Z" transform="translate(-1600.037 -793.536)" fill="url(#linear-gradient-12)"/>
      <path id="Path_16032" data-name="Path 16032" d="M1751.727,1083.4s-2.218-5.859-4.738-3.877,2.129,6.6,4.326,6.595Z" transform="translate(-1681.794 -906.218)" fill="url(#linear-gradient-13)"/>
      <path id="Path_16033" data-name="Path 16033" d="M1528.56,1385.837l-1.216-4.776a4.566,4.566,0,0,0-5.339-3.349l-114.421,23.344a4.793,4.793,0,0,0-3.732,5.685l6.976,33.067Z" transform="translate(-1403.75 -1156.895)" fill="#e6bf02"/>
      <path id="Path_16034" data-name="Path 16034" d="M1468.425,1456.784l-8.606-61.845a2.213,2.213,0,0,0-2.671-1.854l-117.526,26.09a4.624,4.624,0,0,0-3.5,5.553l9.864,42.755Z" transform="translate(-1332.759 -1169.838)" fill="#fff"/>
      <path id="Path_16035" data-name="Path 16035" d="M1482.815,1472.619l-3.3-55.206a2.324,2.324,0,0,0-2.8-2.137l-118.755,25.129a3.215,3.215,0,0,0-2.509,3.65l6.326,39.879Z" transform="translate(-1350.26 -1188.475)" fill="#fff"/>
      <path id="Path_16036" data-name="Path 16036" d="M1440.512,1517.563l-7.476-59.8a5.207,5.207,0,0,0-6.135-4.47l-121.769,22.984a4.552,4.552,0,0,0-3.627,5.315l10.286,54.491a4.924,4.924,0,0,0,5.489,3.969l118.052-15.766A6.031,6.031,0,0,0,1440.512,1517.563Z" transform="translate(-1299.354 -1220.369)" fill="#e6bf02"/>
      <path id="Path_16037" data-name="Path 16037" d="M1426.851,1448.317h0a4.675,4.675,0,0,0,5.465,3.727l27.151-5.127a4.675,4.675,0,0,0,3.727-5.461h0a4.673,4.673,0,0,0-5.46-3.727l-27.153,5.127A4.677,4.677,0,0,0,1426.851,1448.317Z" transform="translate(-1342.154 -1207.305)" fill="#e6bf02"/>
      <path id="Path_16038" data-name="Path 16038" d="M1840.773,1255.733l-12.78-17.043s-20.536,21.814-24.474,49.509l12.808,6.249C1820.3,1285.116,1827.622,1272.486,1840.773,1255.733Z" transform="translate(-1780.015 -1040.225)" fill="#4285f2"/>
      <path id="Path_16039" data-name="Path 16039" d="M1922.721,1591.979c-1.514-2.533-4.47-7.354-5.907-8.859a6.174,6.174,0,0,1,3.835-.521c2.522.309,4.5-.919,4.421-2.293l-12.03-3.685c-.542-1.121-2.921-7.531,3.545-22.7l-12.808-6.249a57.7,57.7,0,0,0,4.5,32.73s3.978,12.354,8.547,15.1C1928.752,1602.647,1923.3,1592.952,1922.721,1591.979Z" transform="translate(-1880.272 -1299.7)" fill="url(#linear-gradient-14)"/>
    </g>
  </g>
</svg>
